<svg width="803" height="480" viewBox="0 0 803 480" fill="none" xmlns="http://www.w3.org/2000/svg">
<g opacity="0.7" clip-path="url(#clip0_218_1292)">
<path d="M614.796 474.572C604.515 465.887 598.271 452.166 599.908 438.809C601.546 425.452 611.689 413.173 624.846 410.336C638.003 407.5 653.001 415.352 656.997 428.202C659.196 403.427 661.731 377.614 674.905 356.516C686.833 337.413 707.494 323.743 729.886 321.298C752.278 318.852 775.853 328.089 789.818 345.759C803.783 363.43 807.202 389.119 797.422 409.406C790.217 424.351 776.942 435.473 763.034 444.521C718.092 473.514 664.19 485.304 611.245 477.722L614.796 474.572Z" fill="#F2F2F2"/>
<path d="M767.675 328.601C749.199 343.647 732.25 360.475 717.071 378.842C693.317 407.487 674.095 439.603 660.075 474.072C659.049 476.587 663.133 477.681 664.147 475.195C687.087 419.176 723.708 369.801 770.662 331.586C772.77 329.87 769.766 326.898 767.675 328.601Z" fill="white"/>
<path d="M258.499 472.212C272.619 460.283 281.196 441.437 278.947 423.092C276.697 404.746 262.766 387.88 244.695 383.984C226.624 380.088 206.024 390.873 200.535 408.522C197.515 374.494 194.034 339.041 175.939 310.063C159.555 283.824 131.177 265.049 100.422 261.69C69.6672 258.331 37.2862 271.017 18.1054 295.288C-1.07537 319.558 -5.7717 354.842 7.66201 382.706C17.5582 403.233 35.7903 418.509 54.8931 430.938C115.838 470.587 191.439 487.124 263.375 476.539" fill="#F2F2F2"/>
<path d="M48.5186 271.72C73.8953 292.386 97.1757 315.5 118.023 340.726C138.874 365.927 157.231 393.09 172.836 421.834C181.558 437.959 189.394 454.547 196.308 471.526C197.717 474.979 192.108 476.483 190.714 473.067C178.468 443.135 163.317 414.474 145.479 387.496C127.728 360.616 107.411 335.521 84.8126 312.564C72.031 299.585 58.5454 287.319 44.4168 275.821C41.5209 273.464 45.6465 269.382 48.5186 271.72Z" fill="white"/>
<path d="M576.406 478.949H239.516V133.349C239.516 59.82 299.346 0 372.887 0H443.035C516.576 0 576.406 59.82 576.406 133.349V478.949Z" fill="#F2F2F2"/>
<path d="M506.259 478.949H239.516V133.349C239.442 105.175 248.365 77.7119 264.986 54.9599C265.599 54.1249 266.21 53.3008 266.84 52.4856C274.88 41.9433 284.447 32.6588 295.226 24.9386C295.835 24.4956 296.446 24.0604 297.066 23.6251C306.086 17.3844 315.843 12.2827 326.115 8.43621C326.725 8.20505 327.346 7.97344 327.967 7.75128C337.257 4.43654 346.887 2.16596 356.68 0.981467C357.287 0.898551 357.91 0.833668 358.533 0.768784C368.076 -0.251378 377.701 -0.251378 387.243 0.768784C387.865 0.833668 388.488 0.898543 389.102 0.982355C398.892 2.16693 408.52 4.43723 417.808 7.75133C418.429 7.97348 419.05 8.20508 419.662 8.43669C429.807 12.2347 439.449 17.2602 448.373 23.4012C448.993 23.827 449.613 24.2623 450.224 24.6975C456.266 29.0097 461.942 33.8137 467.192 39.0605C471.403 43.269 475.326 47.755 478.937 52.4884C479.565 53.3008 480.176 54.125 480.788 54.9586C497.409 77.7109 506.333 105.174 506.259 133.349V478.949Z" fill="#CCCCCC"/>
<path d="M484.569 324.375C492.725 324.375 499.337 317.764 499.337 309.61C499.337 301.455 492.725 294.844 484.569 294.844C476.413 294.844 469.801 301.455 469.801 309.61C469.801 317.764 476.413 324.375 484.569 324.375Z" fill="#9B51E0"/>
<path d="M548.808 468.598H537.492L532.108 424.959L548.81 424.96L548.808 468.598Z" fill="#FFB8B8"/>
<path d="M529.409 465.365H551.232V479.103H515.669C515.669 477.299 516.024 475.513 516.715 473.846C517.405 472.179 518.418 470.665 519.693 469.389C520.969 468.113 522.484 467.101 524.151 466.411C525.818 465.72 527.605 465.365 529.409 465.365Z" fill="#2F2E41"/>
<path d="M605.11 468.598H593.794L588.411 424.959L605.112 424.96L605.11 468.598Z" fill="#FFB8B8"/>
<path d="M585.712 465.365H607.535V479.103H571.971C571.971 477.299 572.327 475.513 573.017 473.846C573.708 472.179 574.72 470.665 575.996 469.389C577.272 468.113 578.786 467.101 580.453 466.411C582.12 465.72 583.907 465.365 585.712 465.365Z" fill="#2F2E41"/>
<path d="M492.043 312.535C491.229 311.336 490.688 309.973 490.458 308.542C490.227 307.111 490.314 305.647 490.711 304.253C491.108 302.859 491.805 301.569 492.755 300.474C493.704 299.379 494.882 298.505 496.206 297.914L534.672 191.912L553.6 202.24L509.68 303.539C510.525 305.829 510.501 308.348 509.612 310.621C508.723 312.893 507.032 314.761 504.858 315.87C502.684 316.978 500.178 317.251 497.817 316.637C495.455 316.022 493.401 314.563 492.043 312.535Z" fill="#FFB8B8"/>
<path d="M599.33 332.453C598.073 331.732 596.988 330.745 596.154 329.559C595.32 328.374 594.755 327.021 594.501 325.594C594.246 324.167 594.307 322.702 594.681 321.301C595.054 319.901 595.729 318.599 596.66 317.488L584.743 205.355L606.284 206.339L611.236 316.637C613 318.323 614.083 320.599 614.281 323.031C614.479 325.463 613.777 327.883 612.31 329.832C610.842 331.782 608.71 333.126 606.318 333.609C603.926 334.092 601.439 333.681 599.33 332.453Z" fill="#FFB8B8"/>
<path d="M564.967 172.277C577.487 172.277 587.636 162.13 587.636 149.612C587.636 137.094 577.487 126.946 564.967 126.946C552.447 126.946 542.297 137.094 542.297 149.612C542.297 162.13 552.447 172.277 564.967 172.277Z" fill="#FFB8B8"/>
<path d="M599.185 306.951H530.841L530.923 306.419C531.046 305.624 543.104 226.65 534.211 200.814C533.318 198.275 533.397 195.496 534.431 193.011C535.465 190.526 537.382 188.512 539.812 187.356C552.524 181.371 576.924 174.001 597.518 191.886C600.548 194.561 602.915 197.905 604.43 201.652C605.946 205.399 606.568 209.447 606.249 213.477L599.185 306.951Z" fill="#9B51E0"/>
<path d="M543.967 238.322L513.198 232.08L527.621 197.908C528.484 194.598 530.625 191.766 533.574 190.032C536.523 188.299 540.039 187.805 543.352 188.66C546.664 189.515 549.502 191.649 551.243 194.593C552.984 197.537 553.486 201.052 552.639 204.366L543.967 238.322Z" fill="#9B51E0"/>
<path d="M583.375 249.91L581.525 207.514C580.123 199.544 584.686 192.01 591.704 190.779C598.723 189.552 605.578 195.079 606.987 203.108L613.94 242.723L583.375 249.91Z" fill="#9B51E0"/>
<path d="M596.912 301.875C607.908 343.75 609.108 396.991 606.141 455.065L591.374 453.22L564.607 342.48L549.839 455.065L533.225 454.142C528.262 393.208 523.429 340.897 531.379 306.489L596.912 301.875Z" fill="#2F2E41"/>
<path d="M579.904 167.128C575.674 171.633 567.82 169.215 567.269 163.061C567.226 162.584 567.229 162.103 567.279 161.626C567.563 158.9 569.138 156.425 568.761 153.548C568.676 152.831 568.409 152.149 567.986 151.565C564.616 147.053 556.705 153.583 553.524 149.498C551.574 146.993 553.866 143.05 552.37 140.251C550.394 136.556 544.544 138.379 540.875 136.355C536.793 134.104 537.037 127.842 539.724 124.033C543.001 119.388 548.747 116.909 554.421 116.552C560.095 116.195 565.73 117.728 571.028 119.793C577.047 122.138 583.015 125.379 586.719 130.67C591.224 137.106 591.657 145.757 589.404 153.281C588.034 157.859 583.357 163.45 579.904 167.128Z" fill="#2F2E41"/>
<path d="M775.293 479.543H93.8565C93.5656 479.542 93.2869 479.426 93.0815 479.22C92.8761 479.014 92.7607 478.735 92.7607 478.444C92.7607 478.153 92.8761 477.874 93.0815 477.668C93.2869 477.462 93.5656 477.346 93.8565 477.345H775.293C775.584 477.346 775.863 477.462 776.069 477.668C776.274 477.874 776.389 478.153 776.389 478.444C776.389 478.735 776.274 479.014 776.069 479.22C775.863 479.426 775.584 479.542 775.293 479.543Z" fill="#3F3D56"/>
<path d="M432.882 378.822H312.893C311.313 378.831 309.794 378.212 308.669 377.102C307.544 375.992 306.906 374.482 306.894 372.902V105.124C306.906 103.545 307.544 102.034 308.669 100.924C309.794 99.8142 311.313 99.1957 312.893 99.2042H432.882C434.462 99.1957 435.981 99.8142 437.106 100.924C438.23 102.034 438.869 103.545 438.881 105.124V372.902C438.869 374.482 438.23 375.992 437.106 377.102C435.981 378.212 434.462 378.831 432.882 378.822Z" fill="white"/>
<path d="M438.881 185.849H306.894V187.694H438.881V185.849Z" fill="#CCCCCC"/>
<path d="M439.342 291.153H307.355V292.999H439.342V291.153Z" fill="#CCCCCC"/>
<path d="M350.274 99.2043H348.428V379.745H350.274V99.2043Z" fill="#CCCCCC"/>
<path d="M396.423 99.2043H394.578V379.745H396.423V99.2043Z" fill="#CCCCCC"/>
</g>
<defs>
<clipPath id="clip0_218_1292">
<rect width="803" height="480" fill="white"/>
</clipPath>
</defs>
</svg>
